<svg xmlns="http://www.w3.org/2000/svg" width="92" height="92" fill="none"><path fill="#432205" fill-rule="evenodd" d="M70.944 17.244a1.917 1.917 0 0 0-2.569.62L55.15 38.333h7.448l9.417-18.37a1.916 1.916 0 0 0-.748-2.534zm-4.037 21.09 8.518-16.62a5.75 5.75 0 0 0-2.243-7.603l-.322-.186a5.75 5.75 0 0 0-7.705 1.859L50.59 38.334H11.5v3.833h1.917v5.75c0 11.086 7.24 20.481 17.25 23.715v6.951a1.917 1.917 0 0 0 1.916 1.917h26.834a1.917 1.917 0 0 0 1.916-1.917v-6.951c10.01-3.234 17.25-12.63 17.25-23.715v-5.75H80.5v-3.834zm7.843 3.833h-57.5v5.75C17.25 59.56 26.69 69 38.333 69h15.334C65.31 69 74.75 59.56 74.75 47.917zM38.333 72.833H34.5v3.834h23v-3.834z" clip-rule="evenodd"/></svg>